<?xml version="1.0" encoding="utf-8"?>
<!-- Generator: Adobe Illustrator 23.0.6, SVG Export Plug-In . SVG Version: 6.00 Build 0)  -->
<svg version="1.1" id="Layer_1" xmlns="http://www.w3.org/2000/svg" xmlns:xlink="http://www.w3.org/1999/xlink" x="0px" y="0px"
	 viewBox="0 0 165.4 50.8" style="enable-background:new 0 0 165.4 50.8;" xml:space="preserve">
<style type="text/css">
	.st0{fill:#0872B9;}
</style>
<path class="st0" d="M39.9,20.2C37.8,25,32.7,28,27.6,28c-7.7,0-13.9-6.3-13.9-13.6C13.7,7.2,19.8,1,27.5,1c4.4,0,10,2.2,12.6,7.9
	h-5.6c-1.9-2.1-4.2-3.4-7.1-3.4c-4.3,0-8.7,3.8-8.7,9c0,4.9,4.1,9.1,8.9,9.1c3.6,0,5.5-2,6.7-3.3h5.6V20.2z M50.4,6.7
	c6,0,11,4.6,11,10.7c0,5.8-5,10.5-11,10.5c-6.1,0-11-4.7-11-10.5C39.4,11.3,44.4,6.7,50.4,6.7z M50.4,24c4,0,7.1-3.1,7.1-6.7
	c0-3.7-3.2-6.7-7.1-6.7s-7.1,3-7.1,6.7C43.3,20.9,46.4,24,50.4,24z M80.3,7.1l7.9,0.1v3.5h-3.9v16.8h-4V7.1z M79.2,7.1h-3.9h-4v3.5
	h4v11.3h-0.1L66.5,7.1h-4.4v20.4H66V12.7h0.1l8.8,14.8h4.4L79.2,7.1L79.2,7.1z M89,7.1h6.5c2.4,0,3.9,0.4,5.1,1.4
	c1.2,0.9,2.5,2.6,2.5,4.9c0,1.3-0.5,3.5-2,4.9c-1.3,1.2-2.5,1.4-3.5,1.7l5.7,7.5h-4.7L93,19.7h-0.1v7.8H89V7.1z M92.9,16.9h2.5
	c3.2,0,3.8-2.1,3.8-3.1c0-1.1-0.7-3.1-3.8-3.1h-2.5V16.9z M114.1,6.7c6,0,11,4.6,11,10.7c0,5.8-5,10.5-11,10.5
	c-6.1,0-11-4.7-11-10.5C103.1,11.3,108.1,6.7,114.1,6.7z M114.1,24c4,0,7.1-3.1,7.1-6.7c0-3.7-3.2-6.7-7.1-6.7c-4,0-7.1,3-7.1,6.7
	C107,20.9,110.1,24,114.1,24z M126,7.1h3.9v16.8h6.4v3.5h-10.4V7.1H126z M1.4,23.2h14.5v4.5H6.4v6.4h9.1v4.5H6.4v6.1h9.5v4.5H1.4
	V23.2z M16.5,28.8H21l8.7,14.8h0.1V28.8h3.9v20.4h-4.4l-8.8-14.9h-0.1v14.8h-3.9V28.8z M43,38.8h13.8v0.4c0,5.8-5.3,10.3-11.2,10.3
	c-6,0-11.4-4.5-11.4-10.6c0-6,5.3-10.6,11.2-10.6c5.3,0,9.2,3.5,10.2,6.4h-4.7C50,33.4,48,32,45.3,32c-4.8,0-7.2,3.8-7.2,6.9
	c0,3,2.4,6.9,7.4,6.9c2.6,0,5-1.2,6.2-3.6h-8.8L43,38.8L43,38.8z M57.2,28.8h3.9v20.4h-3.9V28.8z M62.1,28.8h4.5l8.7,14.8h0.1V28.8
	h3.9v20.4h-4.5L66,34.3h-0.1v14.8H62V28.8H62.1z M80.3,28.8h11.4v3.5h-7.4v5h7.1v3.5h-7.1v4.8h7.4v3.5H80.3V28.8z M92.6,28.8H104
	v3.5h-7.4v5h7.1v3.5h-7.1v4.8h7.4v3.5H92.6V28.8z M104.8,28.8h6.5c2.4,0,3.9,0.4,5.1,1.4c1.2,0.9,2.5,2.6,2.5,4.9
	c0,1.3-0.5,3.5-2,4.9c-1.3,1.2-2.5,1.4-3.5,1.7l5.7,7.5h-4.7l-5.6-7.8h-0.1v7.8h-3.9V28.8z M108.7,38.5h2.5c3.2,0,3.8-2.1,3.8-3.1
	c0-1.1-0.7-3.1-3.8-3.1h-2.5V38.5z M119.1,28.8h3.9v20.4h-3.9V28.8z M124,28.8h4.5l8.7,14.8h0.1V28.8h3.9v20.4h-4.4l-8.9-14.9h-0.1
	v14.8h-3.9L124,28.8L124,28.8z M150.5,38.8h13.8v0.4c0,5.8-5.3,10.3-11.2,10.3c-6,0-11.4-4.5-11.4-10.6c0-6,5.3-10.6,11.2-10.6
	c5.3,0,9.2,3.5,10.2,6.4h-4.7c-0.9-1.3-2.9-2.7-5.6-2.7c-4.8,0-7.2,3.8-7.2,6.9c0,3,2.4,6.9,7.4,6.9c2.6,0,5-1.2,6.2-3.6h-8.8v-3.4
	H150.5z"/>
<path class="st0" d="M161.2,48.4c0-0.7,0.6-1.3,1.3-1.3s1.3,0.5,1.3,1.3c0,0.7-0.6,1.3-1.3,1.3C161.8,49.6,161.2,49.1,161.2,48.4z
	 M162.5,49.4c0.6,0,1-0.4,1-1s-0.4-1-1-1s-1,0.4-1,1C161.5,49,161.9,49.4,162.5,49.4z M162.3,49.1h-0.2v-1.4h0.6
	c0.3,0,0.5,0.1,0.5,0.4c0,0.3-0.2,0.4-0.4,0.4l0.4,0.6H163l-0.4-0.6h-0.3L162.3,49.1L162.3,49.1z M162.5,48.3c0.2,0,0.4,0,0.4-0.2
	s-0.2-0.2-0.3-0.2h-0.3v0.4H162.5z"/>
</svg>
