<?xml version="1.0" encoding="utf-8"?>
<!-- Generator: Adobe Illustrator 23.0.2, SVG Export Plug-In . SVG Version: 6.00 Build 0)  -->
<svg version="1.1" id="Layer_1" xmlns="http://www.w3.org/2000/svg" xmlns:xlink="http://www.w3.org/1999/xlink" x="0px" y="0px"
	 viewBox="0 0 387.7 153.1" style="enable-background:new 0 0 387.7 153.1;" xml:space="preserve">
<style type="text/css">
	.st0{fill:#90CC00;}
	.st1{fill:#003300;}
	.st2{fill:#484545;}
	.st3{fill:#808080;}
</style>
<title>np-LogoTrial</title>
<g>
	<g id="Layer_1-2">
		<polygon class="st0" points="330.8,58.6 274.4,1.8 331.7,2.5 387.7,59.1 		"/>
		<polygon class="st1" points="330.9,119.8 274.8,120.3 331.5,63.4 387.7,63.4 		"/>
		<path class="st2" d="M82.7,119.6H68.4L14.3,27.4v92.1H0V0h14.3l54.3,92.6V0h14.1V119.6z"/>
		<path class="st2" d="M122.1,72.8v46.8h-14.2V0h39.7c11.8,0,21,3.3,27.7,10c6.7,6.7,10,15.5,10,26.5c0,11.6-3.3,20.6-9.8,26.8
			c-6.5,6.3-15.9,9.4-28.1,9.4L122.1,72.8z M122.1,59.9h25.5c7.6,0,13.4-2,17.4-6s6.1-9.7,6.1-17.2c0-7.1-2-12.8-6.1-17.1
			s-9.6-6.5-16.6-6.6h-26.3V59.9z"/>
		<path class="st3" d="M0.6,129.3h1.6l7.5,18.2v-18.2h1.9v23.5H10l-7.5-18.4v18.4H0.6V129.3z"/>
		<path class="st3" d="M15.6,129.3h8.5v1.7h-6.3v8.8h5.1v1.6h-5.1v9.7h6.3v1.6h-8.5V129.3z"/>
		<path class="st3" d="M26.1,129.3H28l3.1,19.1l3.5-18.7h1.8l3.6,18.8l2.9-19.1h1.9L41,152.8h-1.7l-3.7-19.4l-3.7,19.4h-1.8
			L26.1,129.3z"/>
		<path class="st3" d="M53.8,129.3h5.6c2,0,3.4,0.6,4.3,1.6c0.9,1.3,1.4,3,1.3,4.6c0.1,1.6-0.4,3.1-1.3,4.4c-1,1.2-2.6,1.8-4.2,1.7
			H56v11.1h-2.2L53.8,129.3z M58.8,140.1c1.1,0.1,2.2-0.2,3.1-1c0.7-1,1-2.3,0.9-3.5c0-0.9-0.1-1.9-0.3-2.8
			c-0.2-0.6-0.6-1.1-1.2-1.4c-0.8-0.3-1.6-0.4-2.4-0.4H56v9.1L58.8,140.1z"/>
		<path class="st3" d="M67.8,129.3h5.3c2.1,0,3.6,0.5,4.5,1.5c1,1.3,1.5,2.8,1.4,4.5c0,1.3-0.2,2.5-0.7,3.7c-0.5,1-1.4,1.7-2.5,1.8
			l3.6,12h-2.2l-3.4-11.5H70v11.5h-2.2L67.8,129.3z M73,139.7c1.1,0.2,2.2-0.2,3-1c0.6-1,0.9-2.1,0.8-3.3c0.1-1.2-0.2-2.4-0.8-3.4
			c-0.8-0.8-1.9-1.1-3-1h-3v8.7H73z"/>
		<path class="st3" d="M83.6,151.2c-1-1.6-1.5-3.5-1.4-5.3v-9.7c-0.1-1.9,0.4-3.7,1.4-5.2c0.9-1.2,2.5-1.8,4.7-1.8s3.7,0.6,4.6,1.8
			c1,1.5,1.5,3.4,1.4,5.2v9.8c0.1,1.9-0.4,3.7-1.4,5.3c-0.9,1.3-2.5,1.9-4.6,1.9C86,153.1,84.5,152.5,83.6,151.2z M91.2,150.1
			c0.6-1.1,0.9-2.4,0.8-3.7v-10.6c0.1-1.3-0.2-2.5-0.8-3.6c-0.7-0.9-1.9-1.4-3-1.2c-1.1-0.1-2.3,0.3-3,1.2c-0.6,1.1-0.9,2.4-0.8,3.7
			v10.6c-0.1,1.3,0.2,2.6,0.8,3.7c0.7,0.9,1.9,1.4,3,1.3C89.4,151.5,90.5,151,91.2,150.1L91.2,150.1z"/>
		<path class="st3" d="M97.9,129.3h5.1c2.3,0,4,0.6,4.9,1.8c1.1,1.5,1.6,3.3,1.4,5.1v9.3c0.1,1.9-0.3,3.8-1.4,5.4
			c-0.9,1.3-2.5,1.9-4.8,1.9h-5.3V129.3z M103.1,151.2c0.9,0.1,1.9-0.2,2.7-0.7c0.6-0.5,1-1.2,1.2-2c0.2-1.1,0.3-2.1,0.3-3.2v-8.8
			c0-1-0.1-2.1-0.3-3.1c-0.2-0.7-0.6-1.3-1.2-1.8c-0.8-0.5-1.7-0.7-2.6-0.6h-2.9v20.1L103.1,151.2z"/>
		<path class="st3" d="M114.1,151.4c-1-1.5-1.4-3.2-1.3-5v-17.1h2.1v17.1c-0.1,1.3,0.2,2.5,0.8,3.6c1.6,1.7,4.2,1.7,5.9,0.1
			c0,0,0.1-0.1,0.1-0.1c0.6-1.1,0.9-2.3,0.9-3.6v-17.2h2.1v17.1c0.1,1.8-0.4,3.5-1.3,5c-0.9,1.2-2.4,1.8-4.6,1.8
			C116.5,153.2,115,152.6,114.1,151.4z"/>
		<path class="st3" d="M129.4,151.2c-1-1.6-1.4-3.5-1.3-5.4v-9.3c-0.1-1.9,0.3-3.8,1.3-5.4c0.9-1.3,2.4-1.9,4.6-1.9
			c2,0,3.4,0.6,4.3,1.7c1,1.5,1.4,3.2,1.3,5v1.4h-2.1v-1.4c0-0.9-0.1-1.8-0.3-2.7c-0.1-0.6-0.5-1.2-1-1.6c-0.6-0.4-1.4-0.6-2.2-0.6
			c-0.8-0.1-1.7,0.2-2.4,0.6c-0.6,0.4-0.9,1.1-1.1,1.8c-0.2,0.9-0.3,1.9-0.3,2.9v10c-0.1,1.4,0.2,2.8,0.8,4c0.7,0.9,1.8,1.4,2.9,1.3
			c1.1,0.1,2.2-0.4,2.8-1.3c0.5-1.2,0.8-2.5,0.7-3.8v-1.5h2.1v1.4c0.1,1.8-0.3,3.6-1.3,5.2c-0.8,1.2-2.3,1.8-4.3,1.8
			C131.8,153.1,130.3,152.5,129.4,151.2z"/>
		<path class="st3" d="M146,131.1h-4.4v-1.7h11v1.7h-4.3v21.8H146V131.1z"/>
		<path class="st3" d="M155.8,151.4c-1-1.3-1.6-3-1.6-4.7l1.9-0.6c0.1,1.3,0.5,2.7,1.1,3.8c0.6,0.9,1.7,1.4,2.8,1.3
			c2.2,0,3.3-1.1,3.3-3.4c0-0.9-0.2-1.8-0.7-2.6c-0.6-0.9-1.4-1.8-2.2-2.5l-4.1-4c-0.7-0.6-1.2-1.3-1.6-2.2
			c-0.3-0.8-0.5-1.7-0.5-2.5c-0.1-1.4,0.4-2.8,1.4-3.7c1.1-0.9,2.5-1.4,3.9-1.3c1.5-0.1,2.9,0.4,4,1.4c1.1,1.3,1.6,2.9,1.6,4.6
			l-1.9,0.5c0-1.2-0.4-2.5-1-3.5c-0.7-0.8-1.7-1.3-2.7-1.2c-0.9,0-1.7,0.2-2.4,0.8c-0.6,0.6-1,1.5-0.9,2.3c0,0.6,0.1,1.2,0.4,1.8
			c0.3,0.6,0.8,1.2,1.3,1.7l4.1,3.9c1,0.9,1.8,1.9,2.5,3.1c0.6,1,0.9,2.2,0.9,3.4c0.1,1.5-0.5,2.9-1.5,3.9c-1.1,1-2.5,1.5-3.9,1.4
			C158.5,153.2,156.9,152.6,155.8,151.4z"/>
		<path class="st3" d="M174.3,129.3h8.4v1.7h-6.2v8.8h5.2v1.6h-5.2v11.4h-2.2V129.3z"/>
		<path class="st3" d="M186.4,151.2c-1-1.6-1.5-3.5-1.4-5.3v-9.7c-0.1-1.9,0.4-3.7,1.4-5.2c0.9-1.2,2.5-1.8,4.7-1.8s3.7,0.6,4.6,1.8
			c1,1.5,1.5,3.4,1.4,5.2v9.8c0.1,1.9-0.4,3.7-1.4,5.3c-0.9,1.3-2.4,1.9-4.6,1.9S187.3,152.5,186.4,151.2z M194,150.1
			c0.6-1.1,0.9-2.4,0.8-3.7v-10.7c0.1-1.3-0.2-2.5-0.8-3.6c-0.7-0.9-1.9-1.4-3-1.2c-1.1-0.1-2.3,0.3-3,1.2c-0.6,1.1-0.9,2.4-0.8,3.7
			v10.6c-0.1,1.3,0.2,2.6,0.8,3.7c0.7,0.9,1.9,1.4,3,1.3C192.2,151.5,193.3,151,194,150.1L194,150.1z"/>
		<path class="st3" d="M200.7,129.3h5.3c2.1,0,3.6,0.5,4.5,1.5c1,1.3,1.5,2.9,1.3,4.4c0,1.3-0.2,2.5-0.7,3.7c-0.5,1-1.4,1.7-2.5,1.8
			l3.6,12H210l-3.4-11.5h-3.7v11.5h-2.2L200.7,129.3z M205.9,139.7c1.1,0.1,2.2-0.2,3-1c0.6-1,0.9-2.1,0.8-3.3
			c0.1-1.2-0.2-2.3-0.8-3.3c-0.8-0.8-1.9-1.1-2.9-1h-3v8.7L205.9,139.7z"/>
		<path class="st3" d="M221.5,129.3h8.5v1.7h-6.3v8.8h5.1v1.6h-5.1v9.7h6.3v1.6h-8.6L221.5,129.3z"/>
		<path class="st3" d="M233,129.3h1.6l7.5,18.2v-18.2h1.9v23.5h-1.6l-7.4-18.4v18.4h-2V129.3z"/>
		<path class="st3" d="M248.9,151.2c-1-1.7-1.4-3.6-1.3-5.6v-9.2c-0.1-1.9,0.3-3.9,1.3-5.5c0.9-1.2,2.4-1.9,4.6-1.9
			c2,0,3.5,0.6,4.4,1.7c1,1.5,1.4,3.3,1.3,5.1v0.8h-2.1v-0.8c0.1-1.3-0.2-2.6-0.8-3.8c-0.7-0.9-1.7-1.3-2.8-1.2
			c-0.8-0.1-1.7,0.2-2.4,0.7c-0.6,0.5-1,1.1-1.1,1.8c-0.2,1-0.3,1.9-0.3,2.9v9.6c-0.1,1.4,0.2,2.8,0.8,4.1c0.7,1,1.8,1.5,3,1.3
			c1.1,0.1,2.2-0.4,2.8-1.4c0.6-1.3,0.9-2.7,0.8-4.1v-2.8h-3.5v-1.6h5.5v11.4h-1.4l-0.3-2.7c-0.3,0.9-0.8,1.6-1.5,2.2
			c-0.8,0.6-1.8,0.8-2.7,0.8C251.3,153.1,249.8,152.5,248.9,151.2z"/>
		<path class="st3" d="M263.2,129.3h2.2v23.5h-2.2V129.3z"/>
		<path class="st3" d="M269.6,129.3h1.6l7.5,18.2v-18.2h1.9v23.5H279l-7.5-18.4v18.4h-1.9V129.3z"/>
		<path class="st3" d="M284.6,129.3h8.5v1.7h-6.3v8.8h5.1v1.6h-5.1v9.7h6.3v1.6h-8.6L284.6,129.3z"/>
		<path class="st3" d="M296.2,129.3h8.5v1.7h-6.3v8.8h5.1v1.6h-5.1v9.7h6.3v1.6h-8.5V129.3z"/>
		<path class="st3" d="M307.8,129.3h5.3c2.1,0,3.6,0.5,4.5,1.5c1,1.3,1.4,2.9,1.3,4.4c0,1.3-0.2,2.5-0.7,3.7c-0.5,1-1.4,1.7-2.5,1.8
			l3.6,12h-2.1l-3.5-11.5H310v11.5h-2.2L307.8,129.3z M313,139.7c1.1,0.1,2.2-0.2,3-1c0.6-1,0.9-2.1,0.8-3.3
			c0.1-1.2-0.2-2.4-0.8-3.4c-0.8-0.8-1.9-1.1-3-1h-3v8.7H313z"/>
		<path class="st3" d="M323.4,151.4c-1-1.3-1.6-3-1.7-4.7l2-0.6c0.1,1.3,0.5,2.7,1.1,3.8c0.6,0.9,1.7,1.4,2.8,1.3
			c2.2,0,3.3-1.1,3.3-3.4c0-0.9-0.2-1.8-0.7-2.6c-0.6-0.9-1.4-1.8-2.2-2.5l-4.1-4c-0.7-0.6-1.2-1.3-1.6-2.2
			c-0.3-0.8-0.5-1.7-0.5-2.5c-0.1-1.4,0.4-2.8,1.4-3.7c1.1-0.9,2.5-1.4,3.9-1.3c1.5-0.1,2.9,0.4,4,1.4c1.1,1.3,1.6,2.9,1.6,4.6
			l-1.9,0.5c0-1.2-0.4-2.5-1-3.5c-0.7-0.8-1.7-1.3-2.7-1.2c-0.9,0-1.7,0.2-2.4,0.8c-0.6,0.6-1,1.5-0.9,2.3c0,0.6,0.1,1.2,0.4,1.8
			c0.3,0.6,0.8,1.2,1.3,1.7l4.1,3.9c1,0.9,1.8,1.9,2.5,3.1c0.6,1,0.9,2.2,0.9,3.4c0.1,1.5-0.5,2.9-1.5,3.9c-1.1,1-2.5,1.5-3.9,1.4
			C326,153.2,324.5,152.6,323.4,151.4z"/>
		<polygon class="st2" points="266.8,106.7 217.6,106.7 217.6,64.3 264.2,64.3 264.2,51.4 217.6,51.4 217.6,12.9 265.7,12.9 251,0 
			203.4,0 203.4,119.6 252.1,119.6 		"/>
	</g>
</g>
</svg>
