<svg width="681" height="96" viewBox="0 0 681 96" fill="none" xmlns="http://www.w3.org/2000/svg">
<path d="M111.718 94.0806C112.822 95.151 114.993 96 116.523 96H142.542C144.108 96 144.464 95.151 143.36 94.0806L93.9932 46.6131C92.8898 45.5427 92 45.9118 92 47.4251V72.4508C92 73.9272 92.8898 76.0311 93.9932 77.1016L111.718 94.0806Z" fill="white"/>
<path d="M0.070161 95.562C0.280644 95.8175 0.70161 96 1.36814 96H61.04C62.1977 96 63.6711 95.5255 64.7936 94.832C64.8989 94.759 64.969 94.7225 65.0743 94.6495C65.3549 94.4671 65.5654 94.2846 65.7759 94.1021L74.09 86.1089L83.0355 77.4587C83.1758 77.3127 83.3161 77.1667 83.4214 77.0207C84.2984 75.9257 85 74.1738 85 72.8963V15.3744C85 14.8999 84.8948 14.5349 84.7544 14.3159C84.4387 13.878 83.9125 13.878 83.246 14.4254C83.1758 14.4984 83.1057 14.5349 83.0355 14.6079L0.596368 94.1021C0.315724 94.3576 0.140322 94.613 0.070161 94.832C0.0350805 94.9415 0 95.051 0 95.1605C0 95.27 0 95.343 0.0350805 95.4525C0.0350805 95.489 0.070161 95.5255 0.070161 95.562Z" fill="#E3430E"/>
<path d="M176.356 18.2838L156 96H169.172L172.328 82.2081H192.902L196.059 96H209.122L188.875 18.2838H176.356ZM182.67 37.6581L189.963 69.6203H175.268L182.67 37.6581Z" fill="white"/>
<path d="M239.324 50.3554L238.453 38.8622H237.691L228.547 42.1459C226.152 43.0216 224.737 44.8824 223.648 47.2905V40.723H221.907L212.872 43.2405V96H224.519V60.8635C224.519 56.704 225.717 54.9527 228.982 53.8581L239.324 50.3554Z" fill="white"/>
<path d="M281.035 15H279.185L269.496 17.5176V44.5541C267.537 41.1608 265.469 40.0662 260.788 40.0662H255.998C247.507 40.0662 243.48 45.3203 243.48 55.6095V82.2081C243.48 91.2932 247.181 96 255.127 96H259.917C266.013 96 268.843 93.9203 270.258 89.6514L271.347 96H281.035V15ZM269.496 79.0338C269.17 82.9743 267.646 84.7257 265.033 84.7257H259.482C256.434 84.7257 255.019 82.8649 255.019 78.2676V57.7987C255.019 53.2014 256.434 51.3405 259.373 51.3405H265.033C267.864 51.3405 269.279 53.3108 269.496 57.2513V79.0338Z" fill="white"/>
<path d="M314.886 96H324.574V53.2013C324.574 44.4446 320.764 40.0662 312.927 40.0662H300.408C293.115 40.0662 289.523 44.5541 289.523 53.0919V57.6892H300.299V56.7041C300.299 53.2014 301.388 51.7784 303.783 51.7784H309.443C311.838 51.7784 313.036 53.2014 313.036 56.7041V62.2865H298.667C291.373 62.2865 287.781 66.5554 287.781 74.7649V82.7554C287.781 91.7311 291.373 96 298.667 96H304.327C309.661 96 311.838 95.0149 314.015 90.4176L314.886 96ZM301.17 84.2878C299.537 84.2878 298.449 83.5216 298.449 80.0189V78.1581C298.449 74.9838 299.537 73.123 301.17 73.123H313.036V78.4865C313.036 82.5365 311.838 84.2878 309.334 84.2878H301.17Z" fill="white"/>
<path d="M332.677 96H344.325V56.2662C344.434 52.9824 346.067 50.9027 348.679 50.9027H353.469C356.517 50.9027 357.823 52.7635 357.823 57.3608V96H369.471V53.7486C369.471 44.6635 365.661 40.0662 357.714 40.0662H353.034C348.135 40.0662 345.414 41.3797 343.454 45.2108V40.723H341.712L332.677 43.2405V96Z" fill="white"/>
<path d="M405.797 18.2838H393.497V96H428.875L430.508 83.4122H405.797V18.2838Z" fill="white"/>
<path d="M460.312 96H470V53.2013C470 44.4446 466.19 40.0662 458.352 40.0662H445.834C438.54 40.0662 434.948 44.5541 434.948 53.0919V57.6892H445.725V56.7041C445.725 53.2014 446.813 51.7784 449.208 51.7784H454.869C457.264 51.7784 458.461 53.2014 458.461 56.7041V62.2865H444.092C436.799 62.2865 433.206 66.5554 433.206 74.7649V82.7554C433.206 91.7311 436.799 96 444.092 96H449.752C455.086 96 457.264 95.0149 459.441 90.4176L460.312 96ZM446.596 84.2878C444.963 84.2878 443.874 83.5216 443.874 80.0189V78.1581C443.874 74.9838 444.963 73.123 446.596 73.123H458.461V78.4865C458.461 82.5365 457.264 84.2878 454.76 84.2878H446.596Z" fill="white"/>
<path d="M499.33 96H503.249C511.848 96 515.876 91.0743 515.876 81.3324V53.8581C515.876 44.773 512.066 40.0662 504.119 40.0662H499.33C495.411 40.0662 492.363 41.0513 489.859 44.0068V15H487.9L478.212 17.5176V96H489.859V91.2932C491.383 94.6865 494.105 96 499.33 96ZM489.859 56.7041C490.077 53.0919 491.601 51.3405 494.214 51.3405H499.874C502.922 51.3405 504.337 53.2013 504.337 58.0176V78.2676C504.337 82.8649 502.813 84.7257 499.874 84.7257H494.214C491.492 84.7257 489.968 82.8649 489.859 78.7054V56.7041Z" fill="white"/>
<path d="M543.74 50.9027C545.481 50.9027 546.352 52.3257 546.352 55.2811V58.127H557.129V54.7338C557.129 43.7878 554.952 40.0662 543.631 40.0662H536.664C525.343 40.0662 523.057 44.0068 523.057 53.4203V57.6892C523.057 66.6649 523.601 69.5108 533.943 72.4662L543.74 75.4216C546.026 76.1878 547.223 76.9541 547.223 79.8V81.004C547.223 83.85 546.352 85.1635 544.611 85.1635H535.576C533.834 85.1635 532.963 83.85 532.963 80.7851V78.7054H522.186V81.8797C522.186 92.4973 524.69 96 535.793 96H544.502C553.646 96 558 93.1541 558 83.6311V77.173C558 67.9784 555.932 66.1176 547.223 63.6L537.426 60.6446C534.814 59.7689 533.834 59.1122 533.834 56.2662V55.0622C533.834 52.2162 534.705 50.9027 536.446 50.9027H543.74Z" fill="white"/>
<path d="M568 0H681V46H568V0Z" fill="#E3430E"/>
<path d="M589.747 32.8729V10H585V37H601.936V32.8729H589.747Z" fill="white"/>
<path d="M611.236 37V10H606.489V37H611.236Z" fill="white"/>
<path d="M631.18 37L642.564 10H637.616L628.846 31.9471L620.157 10H615.048L626.272 37H631.18Z" fill="white"/>
<path d="M666.517 14.0886V10H646.403V37H667V32.9114H651.15V25.4671H664.908V21.3786H651.15V14.0886H666.517Z" fill="white"/>
</svg>
