<svg width="40" height="40" viewBox="0 0 40 40" fill="none" xmlns="http://www.w3.org/2000/svg">
<path fill-rule="evenodd" clip-rule="evenodd" d="M0.5 20C0.5 9.23045 9.23045 0.5 20 0.5C30.7696 0.5 39.5 9.23045 39.5 20C39.5 30.7696 30.7696 39.5 20 39.5C9.23045 39.5 0.5 30.7696 0.5 20ZM32.1317 11.9846C32.6754 11.3596 32.6096 10.4121 31.9846 9.86836C31.3596 9.32461 30.4121 9.39047 29.8684 10.0155L15.6366 26.3738L9.9945 21.3771C9.37432 20.8278 8.42632 20.8854 7.87708 21.5055C7.32784 22.1257 7.38535 23.0737 8.00553 23.623L15.9134 30.6263L32.1317 11.9846Z" fill="#12C082"/>
</svg>
